<svg id="Capa_1" enable-background="new 0 0 512 512" height="512" viewBox="0 0 512 512" width="512" xmlns="http://www.w3.org/2000/svg"><g><path d="m256 154.813c-55.794 0-101.187 45.392-101.187 101.187s45.393 101.187 101.187 101.187 101.187-45.393 101.187-101.187-45.393-101.187-101.187-101.187zm0 172.374c-39.252 0-71.187-31.934-71.187-71.187s31.934-71.187 71.187-71.187 71.187 31.934 71.187 71.187-31.935 71.187-71.187 71.187z"/><path d="m498.654 196.02-71.184-7.897c-.765-1.927-1.563-3.844-2.395-5.749l44.629-56.024c4.763-5.979 4.268-14.583-1.15-19.977l-63.883-63.598c-5.418-5.393-14.023-5.849-19.982-1.06l-55.822 44.88c-1.655-.713-3.318-1.402-4.99-2.065l-7.897-71.185c-.843-7.596-7.265-13.345-14.909-13.345h-90.143c-7.644 0-14.066 5.749-14.909 13.346l-7.897 71.184c-1.927.765-3.844 1.563-5.749 2.395l-56.023-44.629c-5.979-4.762-14.583-4.268-19.977 1.15l-63.598 63.883c-5.393 5.417-5.85 14.024-1.06 19.982l44.88 55.822c-.713 1.655-1.402 3.319-2.065 4.99l-71.185 7.897c-7.596.843-13.345 7.265-13.345 14.909v90.143c0 7.644 5.749 14.066 13.346 14.909l71.184 7.897c.765 1.927 1.563 3.844 2.395 5.749l-44.629 56.023c-4.763 5.979-4.268 14.583 1.149 19.977l63.883 63.598c5.418 5.394 14.024 5.85 19.982 1.06l55.822-44.88c1.655.714 3.319 1.402 4.99 2.065l7.897 71.185c.843 7.598 7.265 13.346 14.909 13.346h90.143c7.644 0 14.066-5.749 14.909-13.346l7.897-71.184c1.927-.765 3.844-1.563 5.749-2.395l56.024 44.629c5.979 4.763 14.583 4.269 19.977-1.15l63.598-63.883c5.393-5.417 5.85-14.024 1.06-19.982l-44.88-55.822c.713-1.655 1.402-3.318 2.065-4.99l71.185-7.897c7.598-.843 13.346-7.265 13.346-14.909v-90.143c-.001-7.644-5.75-14.066-13.347-14.909zm-16.654 91.623-67.067 7.44c-5.803.644-10.705 4.596-12.565 10.13-2.182 6.493-4.848 12.936-7.924 19.151-2.591 5.236-1.907 11.5 1.753 16.053l42.293 52.604-44.65 44.851-52.794-42.056c-4.569-3.639-10.835-4.296-16.06-1.681-6.408 3.208-13.06 5.977-19.771 8.232-5.534 1.86-9.486 6.762-10.13 12.565l-7.442 67.068h-63.286l-7.44-67.067c-.644-5.803-4.596-10.705-10.13-12.565-6.493-2.182-12.936-4.848-19.151-7.924-5.236-2.592-11.5-1.907-16.053 1.753l-52.604 42.293-44.851-44.65 42.056-52.794c3.64-4.569 4.296-10.836 1.681-16.06-3.208-6.408-5.977-13.06-8.232-19.771-1.86-5.534-6.762-9.486-12.565-10.13l-67.068-7.442v-63.286l67.067-7.44c5.803-.644 10.705-4.596 12.565-10.13 2.181-6.49 4.847-12.934 7.924-19.152 2.591-5.235 1.907-11.499-1.753-16.052l-42.292-52.604 44.65-44.851 52.793 42.056c4.569 3.639 10.835 4.296 16.06 1.681 6.408-3.208 13.06-5.977 19.771-8.232 5.534-1.86 9.486-6.762 10.13-12.565l7.442-67.068h63.286l7.44 67.067c.644 5.803 4.596 10.705 10.13 12.565 6.493 2.182 12.936 4.848 19.151 7.924 5.235 2.592 11.5 1.907 16.053-1.753l52.604-42.293 44.851 44.65-42.056 52.794c-3.64 4.569-4.296 10.836-1.681 16.06 3.208 6.408 5.977 13.06 8.232 19.771 1.86 5.534 6.762 9.486 12.565 10.13l67.067 7.44v63.288z"/><circle cx="256" cy="256" r="15"/></g></svg>