<svg id="Capa_1" enable-background="new 0 0 512 512" height="512" viewBox="0 0 512 512" width="512" xmlns="http://www.w3.org/2000/svg"><g><path d="m48.638 509.738 76.729-47.561c8.831-5.474 18.992-8.367 29.383-8.367h174.865c86.377 0 156.65-70.271 156.65-156.647v-282.163c0-8.284-6.716-15-15-15h-288.87c-86.383 0-156.66 70.276-156.66 156.657v340.332c0 11.808 12.985 18.896 22.903 12.749zm7.097-353.081c0-69.839 56.819-126.657 126.66-126.657h273.87v267.164c0 69.833-56.815 126.647-126.65 126.647h-174.865c-15.98 0-31.606 4.45-45.188 12.868l-53.827 33.365z"/><path d="m183.965 171.686c8.284 0 15-6.716 15-15 0-31.997 26.258-57.769 58.436-57.012 29.968.717 54.918 25.676 55.618 55.638.703 30.067-22.167 55.628-52.066 58.191-11.377.975-19.958 10.281-19.958 21.648v58.462c0 8.284 6.716 15 15 15s15-6.716 15-15v-51.188c41.927-7.285 73.028-44.483 72.016-87.814-1.081-46.227-38.639-83.822-84.893-84.928-49.02-1.168-89.153 38.126-89.153 87.003 0 8.285 6.716 15 15 15z"/><circle cx="255.995" cy="354.153" r="15"/></g></svg>